# Blender v2.78 (sub 0) OBJ File: 'test-tileset.blend'
# www.blender.org
mtllib test-tileset.mtl
o corner-outer_Plane.005
v -0.100000 0.100000 0.000000
v 0.100000 -0.100000 0.000000
v -0.100000 -0.100000 1.000000
v -0.100000 0.100000 1.000000
v 0.100000 -0.100000 1.000000
vn -0.7071 -0.7071 0.0000
vn 0.0000 0.0000 -1.0000
usemtl None
s off
f 2//1 5//1 4//1 1//1
f 3//2 4//2 5//2
o corner-inner_Plane.004
v -0.100000 0.100000 1.000000
v 0.100000 -0.100000 1.000000
v 0.100000 0.100000 1.000000
vn 0.0000 0.0000 1.0000
usemtl None
s off
f 8//3 6//3 7//3
o filler_Plane.003
v 0.100000 -0.100000 0.000000
v 0.100000 0.100000 0.000000
v -0.100000 -0.100000 1.000000
v -0.100000 0.100000 1.000000
v 0.100000 -0.100000 1.000000
v 0.100000 0.100000 1.000000
vn 1.0000 0.0000 0.0000
vn 0.0000 0.0000 1.0000
usemtl None
s off
f 9//4 10//4 14//4 13//4
f 11//5 13//5 14//5 12//5
o base_Plane.002
v -0.500000 -0.500000 0.000000
v 0.500000 -0.500000 0.000000
v -0.500000 0.500000 0.000000
v 0.500000 0.500000 0.000000
v -0.300000 -0.500000 0.000000
v -0.100000 -0.500000 0.000000
v 0.100000 -0.500000 0.000000
v 0.300000 -0.500000 0.000000
v 0.300000 0.500000 0.000000
v 0.100000 0.500000 0.000000
v -0.100000 0.500000 0.000000
v -0.300000 0.500000 0.000000
v -0.500000 0.300000 0.000000
v -0.500000 0.100000 0.000000
v -0.500000 -0.100000 0.000000
v -0.500000 -0.300000 0.000000
v 0.500000 -0.300000 0.000000
v 0.500000 -0.100000 0.000000
v 0.500000 0.100000 0.000000
v 0.500000 0.300000 0.000000
v -0.300000 -0.300000 0.000000
v -0.300000 -0.100000 0.000000
v -0.300000 0.100000 0.000000
v -0.300000 0.300000 0.000000
v -0.100000 -0.300000 0.000000
v -0.100000 -0.100000 0.000000
v -0.100000 0.100000 0.000000
v -0.100000 0.300000 0.000000
v 0.100000 -0.300000 0.000000
v 0.100000 -0.100000 0.000000
v 0.100000 0.100000 0.000000
v 0.100000 0.300000 0.000000
v 0.300000 -0.300000 0.000000
v 0.300000 -0.100000 0.000000
v 0.300000 0.100000 0.000000
v 0.300000 0.300000 0.000000
vn 0.0000 0.0000 1.0000
usemtl None
s off
f 50//6 34//6 18//6 23//6
f 27//6 38//6 26//6 17//6
f 38//6 42//6 25//6 26//6
f 42//6 46//6 24//6 25//6
f 46//6 50//6 23//6 24//6
f 21//6 22//6 47//6 43//6
f 43//6 47//6 48//6 44//6
f 44//6 48//6 49//6 45//6
f 45//6 49//6 50//6 46//6
f 20//6 21//6 43//6 39//6
f 39//6 43//6 44//6 40//6
f 40//6 44//6 45//6 41//6
f 41//6 45//6 46//6 42//6
f 19//6 20//6 39//6 35//6
f 35//6 39//6 40//6 36//6
f 36//6 40//6 41//6 37//6
f 37//6 41//6 42//6 38//6
f 15//6 19//6 35//6 30//6
f 30//6 35//6 36//6 29//6
f 29//6 36//6 37//6 28//6
f 28//6 37//6 38//6 27//6
f 22//6 16//6 31//6 47//6
f 47//6 31//6 32//6 48//6
f 48//6 32//6 33//6 49//6
f 49//6 33//6 34//6 50//6
o wall_Plane.001
v 0.100000 -0.300000 0.000000
v 0.100000 0.300000 0.000000
v -0.100000 -0.300000 1.000000
v -0.100000 0.300000 1.000000
v 0.100000 -0.300000 1.000000
v 0.100000 0.300000 1.000000
vn 0.0000 0.0000 1.0000
vn 1.0000 0.0000 0.0000
usemtl None
s off
f 53//7 55//7 56//7 54//7
f 52//8 56//8 55//8 51//8
o floor_Plane
v -0.500000 -0.500000 0.000000
v 0.500000 -0.500000 0.000000
v -0.500000 0.500000 0.000000
v 0.500000 0.500000 0.000000
vn 0.0000 0.0000 1.0000
usemtl None
s off
f 57//9 58//9 60//9 59//9
