# Blender v2.78 (sub 0) OBJ File: 'test-tileset.blend'
# www.blender.org
mtllib test-tileset.mtl
o corner-outer_Plane.005
v -0.100000 0.100000 0.000000
v 0.100000 -0.100000 0.000000
v -0.100000 -0.100000 1.000000
v -0.100000 0.100000 1.000000
v 0.100000 -0.100000 1.000000
vt 0.2478 0.0000
vt 0.0000 0.0000
vt 0.0000 0.8761
vt 0.2478 0.8761
vt 0.1239 1.0000
vn 0.7071 0.7071 0.0000
vn 0.0000 0.0000 1.0000
usemtl wall_material
s off
f 2/1/1 1/2/1 4/3/1 5/4/1
f 3/5/2 5/4/2 4/3/2
o corner-inner_Plane.004
v -0.100000 0.100000 1.000000
v 0.100000 -0.100000 1.000000
v 0.100000 0.100000 1.000000
vt 0.5000 0.1554
vt 0.6893 0.3447
vt 0.3107 0.3447
vn 0.0000 0.0000 1.0000
usemtl wall_material
s off
f 8/6/3 6/7/3 7/8/3
o filler_Plane.003
v 0.100000 -0.100000 0.000000
v 0.100000 0.100000 0.000000
v -0.100000 -0.100000 1.000000
v -0.100000 0.100000 1.000000
v 0.100000 -0.100000 1.000000
v 0.100000 0.100000 1.000000
vt 0.0000 0.0000
vt 0.1667 0.0000
vt 0.1667 0.9974
vt 0.0000 0.9974
vt -0.0728 0.9992
vt -0.0728 0.7743
vt 0.2661 0.7743
vt 0.2661 0.9992
vn 1.0000 0.0000 0.0000
vn 0.0000 0.0000 1.0000
usemtl wall_material
s off
f 9/9/4 10/10/4 14/11/4 13/12/4
f 11/13/5 13/14/5 14/15/5 12/16/5
o wall_Plane.001
v 0.100000 -0.300000 0.000000
v 0.100000 0.300000 0.000000
v -0.100000 -0.300000 1.000000
v -0.100000 0.300000 1.000000
v 0.100000 -0.300000 1.000000
v 0.100000 0.300000 1.000000
vt 0.0000 0.2676
vt 0.0000 0.0000
vt 1.0000 0.0000
vt 1.0000 0.2676
vt 0.1691 1.0000
vt 0.1691 0.0000
vt 0.8309 0.0000
vt 0.8309 1.0000
vn 0.0000 0.0000 1.0000
vn 1.0000 0.0000 0.0000
usemtl wall_material
s off
f 17/17/6 19/18/6 20/19/6 18/20/6
f 16/21/7 20/22/7 19/23/7 15/24/7
o floor_Plane
v -0.500000 -0.500000 0.000000
v 0.500000 -0.500000 0.000000
v -0.500000 0.500000 0.000000
v 0.500000 0.500000 0.000000
vt 0.0001 0.0001
vt 0.9999 0.0001
vt 0.9999 0.9999
vt 0.0001 0.9999
vn 0.0000 0.0000 1.0000
usemtl floor_material
s off
f 21/25/8 22/26/8 24/27/8 23/28/8
