# Blender v2.78 (sub 0) OBJ File: 'qtile-tech-5.blend'
# www.blender.org
mtllib qtile-tech-4.mtl
o corner-outer_Plane.011
v 0.050000 0.005000 0.050000
v -0.050000 0.005000 -0.050000
v -0.050000 1.005000 -0.000000
v -0.000000 1.005000 0.050000
v -0.050000 0.055000 -0.000000
v 0.000000 0.055000 0.050000
v -0.050000 1.005000 0.050000
vt 0.9000 0.9977
vt 0.8000 0.9977
vt 0.9000 0.9580
vt 0.1001 0.0001
vt 0.1962 0.0001
vt 0.1962 0.0657
vt 0.1001 0.0657
vt 0.1001 0.9999
vt 0.1962 0.9999
vn 0.0000 1.0000 -0.0000
vn 0.5774 0.5774 -0.5774
vn 0.7071 0.0000 -0.7071
usemtl wall_material2
s off
f 4/1/1 3/2/1 7/3/1
f 1/4/2 2/5/2 5/6/2 6/7/2
f 4/8/3 6/7/3 5/6/3 3/9/3
o corner-inner_Plane.010
v 0.050000 0.005000 -0.050000
v -0.000000 1.005000 -0.050000
v 0.050000 1.005000 -0.000000
v 0.000000 0.055000 -0.050000
v 0.050000 0.055000 -0.000000
v -0.050000 1.005000 -0.050000
v 0.050000 1.005000 0.050000
vt 0.9000 0.9977
vt 0.8000 0.9977
vt 0.8000 0.9580
vt 0.9000 0.9580
vt 0.1962 0.0001
vt 0.1962 0.0657
vt 0.1001 0.0657
vt 0.1001 0.9999
vt 0.1962 0.9999
vn 0.0000 1.0000 0.0000
vn 0.5773 0.5774 -0.5774
vn 0.7071 0.0000 -0.7071
usemtl wall_material2
s off
f 10/10/4 9/11/4 13/12/4 14/13/4
f 8/14/5 11/15/5 12/16/5
f 10/17/6 12/16/6 11/15/6 9/18/6
o wall_Plane.009
v 0.050000 0.005000 0.400000
v 0.050000 0.005000 -0.400000
v -0.000000 1.005000 -0.400000
v -0.000000 1.005000 0.400000
v 0.000000 0.055000 -0.400000
v 0.000000 0.055000 0.400000
v -0.050000 1.005000 -0.400000
v -0.050000 1.005000 0.400000
vt 0.1000 0.9580
vt 0.9000 0.9580
vt 0.9000 0.9977
vt 0.1000 0.9977
vt 0.1001 0.0001
vt 0.8999 0.0001
vt 0.8999 0.0657
vt 0.1001 0.0657
vt 0.8999 0.9999
vt 0.1001 0.9999
vn 0.0000 1.0000 0.0000
vn 0.7071 0.7071 -0.0000
vn 1.0000 0.0000 -0.0000
usemtl wall_material2
s off
f 21/19/7 22/20/7 18/21/7 17/22/7
f 15/23/8 16/24/8 19/25/8 20/26/8
f 17/27/9 18/28/9 20/26/9 19/25/9
o filler_Plane.005
v 0.050000 0.005000 0.050000
v 0.050000 0.005000 -0.050000
v -0.000000 1.005000 -0.050000
v -0.000000 1.005000 0.050000
v 0.000000 0.055000 -0.050000
v 0.000000 0.055000 0.050000
v -0.050000 1.005000 -0.050000
v -0.050000 1.005000 0.050000
vt 0.9000 0.9977
vt 0.8000 0.9977
vt 0.8000 0.9580
vt 0.9000 0.9580
vt 0.1001 0.0001
vt 0.1962 0.0001
vt 0.1962 0.0657
vt 0.1001 0.0657
vt 0.1001 0.9999
vt 0.1962 0.9999
vn 0.0000 1.0000 -0.0000
vn 0.7071 0.7071 -0.0000
vn 1.0000 0.0000 -0.0000
usemtl wall_material2
s off
f 26/29/10 25/30/10 29/31/10 30/32/10
f 23/33/11 24/34/11 27/35/11 28/36/11
f 26/37/12 28/36/12 27/35/12 25/38/12
o floor_Plane
v -0.500000 0.005000 0.500000
v 0.500000 0.005000 0.500000
v -0.500000 0.005000 -0.500000
v 0.500000 0.005000 -0.500000
vt 0.0001 0.0001
vt 0.9999 0.0001
vt 0.9999 0.9999
vt 0.0001 0.9999
vn 0.0000 1.0000 0.0000
usemtl floor_material2
s off
f 31/39/13 32/40/13 34/41/13 33/42/13
